<mxfile host="app.diagrams.net" modified="2023-09-22T17:37:38.104Z" agent="Mozilla/5.0 (X11; Linux x86_64; rv:103.0) Gecko/20100101 Firefox/103.0" etag="cTVCT8y7AsgAGXQX41E5" version="21.6.9" type="github">
  <diagram name="Página-1" id="wquhbqr0Ra4CAVDb-ldz">
    <mxGraphModel dx="2261" dy="718" grid="1" gridSize="10" guides="1" tooltips="1" connect="1" arrows="1" fold="1" page="1" pageScale="1" pageWidth="827" pageHeight="1169" math="0" shadow="0">
      <root>
        <mxCell id="0" />
        <mxCell id="1" parent="0" />
        <mxCell id="OgNvgt9OFG2-I3vyfOkp-29" value="" style="edgeStyle=entityRelationEdgeStyle;fontSize=12;html=1;endArrow=ERone;endFill=1;rounded=0;" edge="1" parent="1">
          <mxGeometry width="100" height="100" relative="1" as="geometry">
            <mxPoint x="-150" y="540" as="sourcePoint" />
            <mxPoint x="-90" y="370" as="targetPoint" />
            <Array as="points">
              <mxPoint x="-140" y="540" />
              <mxPoint x="-150" y="540" />
            </Array>
          </mxGeometry>
        </mxCell>
        <mxCell id="OgNvgt9OFG2-I3vyfOkp-1" value="funcionário" style="rounded=1;arcSize=10;whiteSpace=wrap;html=1;align=center;strokeWidth=2;" vertex="1" parent="1">
          <mxGeometry x="50" y="110" width="160" height="40" as="geometry" />
        </mxCell>
        <mxCell id="OgNvgt9OFG2-I3vyfOkp-4" value="ter" style="shape=rhombus;perimeter=rhombusPerimeter;whiteSpace=wrap;html=1;align=center;" vertex="1" parent="1">
          <mxGeometry x="360" y="100" width="120" height="60" as="geometry" />
        </mxCell>
        <mxCell id="OgNvgt9OFG2-I3vyfOkp-7" value="ter" style="shape=rhombus;perimeter=rhombusPerimeter;whiteSpace=wrap;html=1;align=center;" vertex="1" parent="1">
          <mxGeometry x="-90" y="340" width="120" height="60" as="geometry" />
        </mxCell>
        <mxCell id="OgNvgt9OFG2-I3vyfOkp-8" value="departamento" style="rounded=1;arcSize=10;whiteSpace=wrap;html=1;align=center;strokeWidth=2;" vertex="1" parent="1">
          <mxGeometry x="640" y="110" width="180" height="40" as="geometry" />
        </mxCell>
        <mxCell id="OgNvgt9OFG2-I3vyfOkp-11" value="" style="endArrow=none;html=1;rounded=0;exitX=1;exitY=0.5;exitDx=0;exitDy=0;" edge="1" parent="1" source="OgNvgt9OFG2-I3vyfOkp-1">
          <mxGeometry relative="1" as="geometry">
            <mxPoint x="230" y="130" as="sourcePoint" />
            <mxPoint x="360" y="129.5" as="targetPoint" />
          </mxGeometry>
        </mxCell>
        <mxCell id="OgNvgt9OFG2-I3vyfOkp-12" value="1" style="resizable=0;html=1;whiteSpace=wrap;align=right;verticalAlign=bottom;" connectable="0" vertex="1" parent="OgNvgt9OFG2-I3vyfOkp-11">
          <mxGeometry x="1" relative="1" as="geometry" />
        </mxCell>
        <mxCell id="OgNvgt9OFG2-I3vyfOkp-13" value="" style="endArrow=none;html=1;rounded=0;" edge="1" parent="1">
          <mxGeometry relative="1" as="geometry">
            <mxPoint x="480" y="129.5" as="sourcePoint" />
            <mxPoint x="640" y="129.5" as="targetPoint" />
          </mxGeometry>
        </mxCell>
        <mxCell id="OgNvgt9OFG2-I3vyfOkp-14" value="1" style="resizable=0;html=1;whiteSpace=wrap;align=right;verticalAlign=bottom;" connectable="0" vertex="1" parent="OgNvgt9OFG2-I3vyfOkp-13">
          <mxGeometry x="1" relative="1" as="geometry" />
        </mxCell>
        <mxCell id="OgNvgt9OFG2-I3vyfOkp-16" value="depósito" style="rounded=1;arcSize=10;whiteSpace=wrap;html=1;align=center;strokeWidth=2;" vertex="1" parent="1">
          <mxGeometry x="20" y="260" width="185" height="40" as="geometry" />
        </mxCell>
        <mxCell id="OgNvgt9OFG2-I3vyfOkp-17" value="peças" style="rounded=1;arcSize=10;whiteSpace=wrap;html=1;align=center;strokeWidth=2;" vertex="1" parent="1">
          <mxGeometry x="-330" y="515" width="180" height="40" as="geometry" />
        </mxCell>
        <mxCell id="OgNvgt9OFG2-I3vyfOkp-18" value="fornecedor" style="rounded=1;arcSize=10;whiteSpace=wrap;html=1;align=center;" vertex="1" parent="1">
          <mxGeometry x="120" y="710" width="180" height="40" as="geometry" />
        </mxCell>
        <mxCell id="OgNvgt9OFG2-I3vyfOkp-19" value="ter" style="shape=rhombus;perimeter=rhombusPerimeter;whiteSpace=wrap;html=1;align=center;" vertex="1" parent="1">
          <mxGeometry x="-270" y="250" width="120" height="60" as="geometry" />
        </mxCell>
        <mxCell id="OgNvgt9OFG2-I3vyfOkp-20" value="pertencer" style="shape=rhombus;perimeter=rhombusPerimeter;whiteSpace=wrap;html=1;align=center;" vertex="1" parent="1">
          <mxGeometry x="560" y="340" width="120" height="60" as="geometry" />
        </mxCell>
        <mxCell id="OgNvgt9OFG2-I3vyfOkp-21" value="ter" style="shape=rhombus;perimeter=rhombusPerimeter;whiteSpace=wrap;html=1;align=center;" vertex="1" parent="1">
          <mxGeometry x="-210" y="700" width="120" height="60" as="geometry" />
        </mxCell>
        <mxCell id="OgNvgt9OFG2-I3vyfOkp-22" value="" style="edgeStyle=entityRelationEdgeStyle;fontSize=12;html=1;endArrow=ERone;endFill=1;rounded=0;entryX=0.556;entryY=1.025;entryDx=0;entryDy=0;entryPerimeter=0;" edge="1" parent="1" target="OgNvgt9OFG2-I3vyfOkp-8">
          <mxGeometry width="100" height="100" relative="1" as="geometry">
            <mxPoint x="680" y="370" as="sourcePoint" />
            <mxPoint x="460" y="330" as="targetPoint" />
          </mxGeometry>
        </mxCell>
        <mxCell id="OgNvgt9OFG2-I3vyfOkp-23" value="" style="edgeStyle=entityRelationEdgeStyle;fontSize=12;html=1;endArrow=ERone;endFill=1;rounded=0;" edge="1" parent="1">
          <mxGeometry width="100" height="100" relative="1" as="geometry">
            <mxPoint x="380" y="370" as="sourcePoint" />
            <mxPoint x="560" y="370" as="targetPoint" />
          </mxGeometry>
        </mxCell>
        <mxCell id="OgNvgt9OFG2-I3vyfOkp-24" value="projeto" style="swimlane;childLayout=stackLayout;horizontal=1;startSize=50;horizontalStack=0;rounded=1;fontSize=14;fontStyle=0;strokeWidth=2;resizeParent=0;resizeLast=1;shadow=0;dashed=0;align=center;arcSize=4;whiteSpace=wrap;html=1;" vertex="1" parent="1">
          <mxGeometry x="220" y="320" width="166" height="90" as="geometry" />
        </mxCell>
        <mxCell id="OgNvgt9OFG2-I3vyfOkp-25" value="&lt;div&gt;data de início&lt;/div&gt;&lt;div&gt;horário&lt;br&gt;&lt;/div&gt;" style="align=left;strokeColor=none;fillColor=none;spacingLeft=4;fontSize=12;verticalAlign=top;resizable=0;rotatable=0;part=1;html=1;" vertex="1" parent="OgNvgt9OFG2-I3vyfOkp-24">
          <mxGeometry y="50" width="166" height="40" as="geometry" />
        </mxCell>
        <mxCell id="OgNvgt9OFG2-I3vyfOkp-28" value="" style="edgeStyle=entityRelationEdgeStyle;fontSize=12;html=1;endArrow=ERone;endFill=1;rounded=0;" edge="1" parent="1">
          <mxGeometry width="100" height="100" relative="1" as="geometry">
            <mxPoint x="30" y="370" as="sourcePoint" />
            <mxPoint x="220" y="370" as="targetPoint" />
          </mxGeometry>
        </mxCell>
        <mxCell id="OgNvgt9OFG2-I3vyfOkp-30" value="" style="edgeStyle=entityRelationEdgeStyle;fontSize=12;html=1;endArrow=ERone;endFill=1;rounded=0;exitX=0.25;exitY=0;exitDx=0;exitDy=0;entryX=0;entryY=1;entryDx=0;entryDy=0;" edge="1" parent="1" source="OgNvgt9OFG2-I3vyfOkp-17" target="OgNvgt9OFG2-I3vyfOkp-19">
          <mxGeometry width="100" height="100" relative="1" as="geometry">
            <mxPoint x="-400" y="545" as="sourcePoint" />
            <mxPoint x="-340" y="430" as="targetPoint" />
            <Array as="points">
              <mxPoint x="-240" y="380" />
              <mxPoint x="-270" y="410" />
              <mxPoint x="-300" y="380" />
            </Array>
          </mxGeometry>
        </mxCell>
        <mxCell id="OgNvgt9OFG2-I3vyfOkp-32" value="" style="edgeStyle=entityRelationEdgeStyle;fontSize=12;html=1;endArrow=ERone;endFill=1;rounded=0;" edge="1" parent="1">
          <mxGeometry width="100" height="100" relative="1" as="geometry">
            <mxPoint x="-150" y="279.5" as="sourcePoint" />
            <mxPoint x="20" y="279.5" as="targetPoint" />
          </mxGeometry>
        </mxCell>
        <mxCell id="OgNvgt9OFG2-I3vyfOkp-36" value="" style="edgeStyle=entityRelationEdgeStyle;fontSize=12;html=1;endArrow=ERone;endFill=1;rounded=0;exitX=0.606;exitY=0.95;exitDx=0;exitDy=0;exitPerimeter=0;" edge="1" parent="1" source="OgNvgt9OFG2-I3vyfOkp-17">
          <mxGeometry width="100" height="100" relative="1" as="geometry">
            <mxPoint x="-240" y="570" as="sourcePoint" />
            <mxPoint x="-210" y="730" as="targetPoint" />
            <Array as="points">
              <mxPoint x="-191" y="560" />
              <mxPoint x="-240" y="580" />
            </Array>
          </mxGeometry>
        </mxCell>
        <mxCell id="OgNvgt9OFG2-I3vyfOkp-38" value="" style="edgeStyle=entityRelationEdgeStyle;fontSize=12;html=1;endArrow=ERone;endFill=1;rounded=0;" edge="1" parent="1">
          <mxGeometry width="100" height="100" relative="1" as="geometry">
            <mxPoint x="-90" y="729.5" as="sourcePoint" />
            <mxPoint x="120" y="729.5" as="targetPoint" />
          </mxGeometry>
        </mxCell>
      </root>
    </mxGraphModel>
  </diagram>
</mxfile>
